G04 PROTEUS GERBER X2 FILE*
%TF.GenerationSoftware,Labcenter,Proteus,8.15-SP1-Build34318*%
%TF.CreationDate,2023-11-28T19:51:24+00:00*%
%TF.FileFunction,AssemblyDrawing,Top*%
%TF.FilePolarity,Positive*%
%TF.Part,Single*%
%TF.SameCoordinates,{4b54416f-b8ac-4c38-86d9-f2280a18938b}*%
%FSLAX45Y45*%
%MOMM*%
G01*
%TA.AperFunction,Material*%
%ADD20C,0.101600*%
%ADD31C,1.219200*%
%ADD32C,0.333580*%
%ADD33C,0.711200*%
%ADD34C,0.117340*%
%ADD35C,0.508000*%
%ADD36C,0.167930*%
%ADD37C,0.609600*%
%ADD38C,0.139700*%
%ADD39C,0.279730*%
%ADD40C,0.914400*%
%ADD41C,0.183130*%
%ADD42C,0.812800*%
%ADD43C,0.179490*%
%ADD44C,0.050000*%
%ADD45C,1.442720*%
%ADD46C,0.131950*%
%ADD47C,0.910330*%
%ADD48C,0.050800*%
%ADD49C,1.016000*%
%ADD50C,0.384110*%
%TA.AperFunction,Profile*%
%ADD71C,0.101600*%
%TD.AperFunction*%
D20*
X+5974920Y+6113920D02*
X+7509080Y+6113920D01*
X+7509080Y+6886080D01*
X+5974920Y+6886080D01*
X+5974920Y+6113920D01*
D31*
X+7250000Y+6500000D02*
X+7250000Y+6500000D01*
D32*
X+6131640Y+6399924D02*
X+6131640Y+6600075D01*
X+6319281Y+6600075D01*
X+6356810Y+6566717D01*
X+6356810Y+6533358D01*
X+6319281Y+6500000D01*
X+6131640Y+6500000D01*
X+6319281Y+6500000D02*
X+6356810Y+6466641D01*
X+6356810Y+6399924D01*
X+6431867Y+6600075D02*
X+6431867Y+6500000D01*
X+6544452Y+6399924D01*
X+6657037Y+6500000D01*
X+6657037Y+6600075D01*
X+6807150Y+6533358D02*
X+6882207Y+6600075D01*
X+6882207Y+6399924D01*
D20*
X+4911100Y+1661100D02*
X+5088900Y+1661100D01*
X+5088900Y+2854900D01*
X+4911100Y+2854900D01*
X+4911100Y+1661100D01*
D33*
X+5000000Y+1750000D02*
X+5000000Y+1750000D01*
D34*
X+5035204Y+2214618D02*
X+4964796Y+2214618D01*
X+4964796Y+2280625D01*
X+4976531Y+2293827D01*
X+4988265Y+2293827D01*
X+5000000Y+2280625D01*
X+5000000Y+2214618D01*
X+5000000Y+2280625D02*
X+5011735Y+2293827D01*
X+5035204Y+2293827D01*
X+4988265Y+2346633D02*
X+4964796Y+2373036D01*
X+5035204Y+2373036D01*
D20*
X+4411100Y+1911100D02*
X+4588900Y+1911100D01*
X+4588900Y+3104900D01*
X+4411100Y+3104900D01*
X+4411100Y+1911100D01*
D33*
X+4500000Y+2000000D02*
X+4500000Y+2000000D01*
D34*
X+4535204Y+2464618D02*
X+4464796Y+2464618D01*
X+4464796Y+2530625D01*
X+4476531Y+2543827D01*
X+4488265Y+2543827D01*
X+4500000Y+2530625D01*
X+4500000Y+2464618D01*
X+4500000Y+2530625D02*
X+4511735Y+2543827D01*
X+4535204Y+2543827D01*
X+4476531Y+2583431D02*
X+4464796Y+2596633D01*
X+4464796Y+2636237D01*
X+4476531Y+2649439D01*
X+4488265Y+2649439D01*
X+4500000Y+2636237D01*
X+4500000Y+2596633D01*
X+4511735Y+2583431D01*
X+4535204Y+2583431D01*
X+4535204Y+2649439D01*
D20*
X+4613920Y+3490920D02*
X+5166480Y+3490920D01*
X+5166480Y+4009080D01*
X+4613920Y+4009080D01*
X+4613920Y+3490920D01*
D35*
X+4873000Y+3623000D02*
X+4873000Y+3623000D01*
D36*
X+4739063Y+3845533D02*
X+4776847Y+3879119D01*
X+4814631Y+3879119D01*
X+4852415Y+3845533D01*
X+4852415Y+3811947D01*
X+4814631Y+3778361D01*
X+4776847Y+3778361D01*
X+4739063Y+3811947D01*
X+4739063Y+3845533D01*
X+4814631Y+3811947D02*
X+4852415Y+3778361D01*
X+4909092Y+3862326D02*
X+4927984Y+3879119D01*
X+4984660Y+3879119D01*
X+5003552Y+3862326D01*
X+5003552Y+3845533D01*
X+4984660Y+3828740D01*
X+5003552Y+3811947D01*
X+5003552Y+3795154D01*
X+4984660Y+3778361D01*
X+4927984Y+3778361D01*
X+4909092Y+3795154D01*
X+4946876Y+3828740D02*
X+4984660Y+3828740D01*
D20*
X+3363920Y+1990920D02*
X+3916480Y+1990920D01*
X+3916480Y+2509080D01*
X+3363920Y+2509080D01*
X+3363920Y+1990920D01*
D35*
X+3623000Y+2123000D02*
X+3623000Y+2123000D01*
D36*
X+3489063Y+2345533D02*
X+3526847Y+2379119D01*
X+3564631Y+2379119D01*
X+3602415Y+2345533D01*
X+3602415Y+2311947D01*
X+3564631Y+2278361D01*
X+3526847Y+2278361D01*
X+3489063Y+2311947D01*
X+3489063Y+2345533D01*
X+3564631Y+2311947D02*
X+3602415Y+2278361D01*
X+3677984Y+2345533D02*
X+3715768Y+2379119D01*
X+3715768Y+2278361D01*
D20*
X+4448820Y+4829820D02*
X+5144780Y+4829820D01*
X+5144780Y+5322580D01*
X+4448820Y+5322580D01*
X+4448820Y+4829820D01*
D37*
X+4593600Y+5000000D02*
X+4593600Y+5000000D01*
D38*
X+4758700Y+5090170D02*
X+4790132Y+5118110D01*
X+4821565Y+5118110D01*
X+4852997Y+5090170D01*
X+4852997Y+5062230D01*
X+4821565Y+5034290D01*
X+4790132Y+5034290D01*
X+4758700Y+5062230D01*
X+4758700Y+5090170D01*
X+4821565Y+5062230D02*
X+4852997Y+5034290D01*
X+4900146Y+5104140D02*
X+4915862Y+5118110D01*
X+4963011Y+5118110D01*
X+4978727Y+5104140D01*
X+4978727Y+5090170D01*
X+4963011Y+5076200D01*
X+4915862Y+5076200D01*
X+4900146Y+5062230D01*
X+4900146Y+5034290D01*
X+4978727Y+5034290D01*
D20*
X+4240920Y+5986920D02*
X+5267080Y+5986920D01*
X+5267080Y+7013080D01*
X+4240920Y+7013080D01*
X+4240920Y+5986920D01*
D31*
X+4500000Y+6500000D02*
X+4500000Y+6500000D01*
D39*
X+4941994Y+6248236D02*
X+4969968Y+6248236D01*
X+4997942Y+6279706D01*
X+4997942Y+6405588D01*
X+4969968Y+6437059D01*
X+4830099Y+6437059D01*
X+4941994Y+6688823D02*
X+4941994Y+6500000D01*
X+4830099Y+6625882D01*
X+4997942Y+6625882D01*
D20*
X+3661100Y+4395100D02*
X+3838900Y+4395100D01*
X+3838900Y+5588900D01*
X+3661100Y+5588900D01*
X+3661100Y+4395100D01*
D33*
X+3750000Y+5500000D02*
X+3750000Y+5500000D01*
D34*
X+3785204Y+4824158D02*
X+3714796Y+4824158D01*
X+3714796Y+4890165D01*
X+3726531Y+4903367D01*
X+3738265Y+4903367D01*
X+3750000Y+4890165D01*
X+3750000Y+4824158D01*
X+3750000Y+4890165D02*
X+3761735Y+4903367D01*
X+3785204Y+4903367D01*
X+3726531Y+4942971D02*
X+3714796Y+4956173D01*
X+3714796Y+4995777D01*
X+3726531Y+5008979D01*
X+3738265Y+5008979D01*
X+3750000Y+4995777D01*
X+3761735Y+5008979D01*
X+3773469Y+5008979D01*
X+3785204Y+4995777D01*
X+3785204Y+4956173D01*
X+3773469Y+4942971D01*
X+3750000Y+4969374D02*
X+3750000Y+4995777D01*
D20*
X+2411100Y+6661100D02*
X+3604900Y+6661100D01*
X+3604900Y+6838900D01*
X+2411100Y+6838900D01*
X+2411100Y+6661100D01*
D33*
X+2500000Y+6750000D02*
X+2500000Y+6750000D01*
D34*
X+2964618Y+6714796D02*
X+2964618Y+6785204D01*
X+3030625Y+6785204D01*
X+3043827Y+6773469D01*
X+3043827Y+6761735D01*
X+3030625Y+6750000D01*
X+2964618Y+6750000D01*
X+3030625Y+6750000D02*
X+3043827Y+6738265D01*
X+3043827Y+6714796D01*
X+3149439Y+6738265D02*
X+3070230Y+6738265D01*
X+3123036Y+6785204D01*
X+3123036Y+6714796D01*
D20*
X+2385700Y+6112840D02*
X+3630300Y+6112840D01*
X+3630300Y+6389700D01*
X+2385700Y+6389700D01*
X+2385700Y+6112840D01*
D40*
X+2500000Y+6250000D02*
X+2500000Y+6250000D01*
D41*
X+2923190Y+6196329D02*
X+2923190Y+6306210D01*
X+3005600Y+6306210D01*
X+3046805Y+6269583D01*
X+3046805Y+6232956D01*
X+3005600Y+6196329D01*
X+2923190Y+6196329D01*
X+3108612Y+6287896D02*
X+3129215Y+6306210D01*
X+3191022Y+6306210D01*
X+3211625Y+6287896D01*
X+3211625Y+6269583D01*
X+3191022Y+6251270D01*
X+3129215Y+6251270D01*
X+3108612Y+6232956D01*
X+3108612Y+6196329D01*
X+3211625Y+6196329D01*
D20*
X+3198820Y+3427420D02*
X+3894780Y+3427420D01*
X+3894780Y+3920180D01*
X+3198820Y+3920180D01*
X+3198820Y+3427420D01*
D37*
X+3750000Y+3750000D02*
X+3750000Y+3750000D01*
D38*
X+3333440Y+3687770D02*
X+3364872Y+3715710D01*
X+3396305Y+3715710D01*
X+3427737Y+3687770D01*
X+3427737Y+3659830D01*
X+3396305Y+3631890D01*
X+3364872Y+3631890D01*
X+3333440Y+3659830D01*
X+3333440Y+3687770D01*
X+3396305Y+3659830D02*
X+3427737Y+3631890D01*
X+3553467Y+3659830D02*
X+3459170Y+3659830D01*
X+3522035Y+3715710D01*
X+3522035Y+3631890D01*
D20*
X+2411100Y+1629100D02*
X+2588900Y+1629100D01*
X+2588900Y+2822900D01*
X+2411100Y+2822900D01*
X+2411100Y+1629100D01*
D33*
X+2500000Y+2734000D02*
X+2500000Y+2734000D01*
D34*
X+2535204Y+2058158D02*
X+2464796Y+2058158D01*
X+2464796Y+2124165D01*
X+2476531Y+2137367D01*
X+2488265Y+2137367D01*
X+2500000Y+2124165D01*
X+2500000Y+2058158D01*
X+2500000Y+2124165D02*
X+2511735Y+2137367D01*
X+2535204Y+2137367D01*
X+2464796Y+2242979D02*
X+2464796Y+2176971D01*
X+2488265Y+2176971D01*
X+2488265Y+2229777D01*
X+2500000Y+2242979D01*
X+2523469Y+2242979D01*
X+2535204Y+2229777D01*
X+2535204Y+2190173D01*
X+2523469Y+2176971D01*
D20*
X+2911100Y+4395100D02*
X+3088900Y+4395100D01*
X+3088900Y+5588900D01*
X+2911100Y+5588900D01*
X+2911100Y+4395100D01*
D33*
X+3000000Y+5500000D02*
X+3000000Y+5500000D01*
D34*
X+3035204Y+4824158D02*
X+2964796Y+4824158D01*
X+2964796Y+4890165D01*
X+2976531Y+4903367D01*
X+2988265Y+4903367D01*
X+3000000Y+4890165D01*
X+3000000Y+4824158D01*
X+3000000Y+4890165D02*
X+3011735Y+4903367D01*
X+3035204Y+4903367D01*
X+2976531Y+5008979D02*
X+2964796Y+4995777D01*
X+2964796Y+4956173D01*
X+2976531Y+4942971D01*
X+3023469Y+4942971D01*
X+3035204Y+4956173D01*
X+3035204Y+4995777D01*
X+3023469Y+5008979D01*
X+3011735Y+5008979D01*
X+3000000Y+4995777D01*
X+3000000Y+4942971D01*
D20*
X+2110300Y+4401700D02*
X+2387160Y+4401700D01*
X+2387160Y+5646300D01*
X+2110300Y+5646300D01*
X+2110300Y+4401700D01*
D40*
X+2250000Y+4516000D02*
X+2250000Y+4516000D01*
D41*
X+2303671Y+4939190D02*
X+2193790Y+4939190D01*
X+2193790Y+5021600D01*
X+2230417Y+5062805D01*
X+2267044Y+5062805D01*
X+2303671Y+5021600D01*
X+2303671Y+4939190D01*
X+2230417Y+5145215D02*
X+2193790Y+5186420D01*
X+2303671Y+5186420D01*
D20*
X+867920Y+4613920D02*
X+1259080Y+4613920D01*
X+1259080Y+5386080D01*
X+867920Y+5386080D01*
X+867920Y+4613920D01*
D42*
X+1000000Y+5254000D02*
X+1000000Y+5254000D01*
D43*
X+1045551Y+4752097D02*
X+1009652Y+4792482D01*
X+1009652Y+4832868D01*
X+1045551Y+4873254D01*
X+1081449Y+4873254D01*
X+1117348Y+4832868D01*
X+1117348Y+4792482D01*
X+1081449Y+4752097D01*
X+1045551Y+4752097D01*
X+1081449Y+4832868D02*
X+1117348Y+4873254D01*
X+1045551Y+5034797D02*
X+1063500Y+5014604D01*
X+1063500Y+4954025D01*
X+1045551Y+4933832D01*
X+1027601Y+4933832D01*
X+1009652Y+4954025D01*
X+1009652Y+5014604D01*
X+1027601Y+5034797D01*
X+1099399Y+5034797D01*
X+1117348Y+5014604D01*
X+1117348Y+4954025D01*
D20*
X+867920Y+3113920D02*
X+1259080Y+3113920D01*
X+1259080Y+3886080D01*
X+867920Y+3886080D01*
X+867920Y+3113920D01*
D42*
X+1000000Y+3754000D02*
X+1000000Y+3754000D01*
D43*
X+1045551Y+3171326D02*
X+1009652Y+3211711D01*
X+1009652Y+3252097D01*
X+1045551Y+3292483D01*
X+1081449Y+3292483D01*
X+1117348Y+3252097D01*
X+1117348Y+3211711D01*
X+1081449Y+3171326D01*
X+1045551Y+3171326D01*
X+1081449Y+3252097D02*
X+1117348Y+3292483D01*
X+1045551Y+3373254D02*
X+1009652Y+3413640D01*
X+1117348Y+3413640D01*
X+1045551Y+3534797D02*
X+1009652Y+3575183D01*
X+1117348Y+3575183D01*
D20*
X-632080Y+4609920D02*
X-240920Y+4609920D01*
X-240920Y+5382080D01*
X-632080Y+5382080D01*
X-632080Y+4609920D01*
D42*
X-500000Y+5250000D02*
X-500000Y+5250000D01*
D43*
X-454449Y+4667326D02*
X-490348Y+4707711D01*
X-490348Y+4748097D01*
X-454449Y+4788483D01*
X-418551Y+4788483D01*
X-382652Y+4748097D01*
X-382652Y+4707711D01*
X-418551Y+4667326D01*
X-454449Y+4667326D01*
X-418551Y+4748097D02*
X-382652Y+4788483D01*
X-454449Y+4869254D02*
X-490348Y+4909640D01*
X-382652Y+4909640D01*
X-400601Y+4990412D02*
X-472399Y+4990412D01*
X-490348Y+5010604D01*
X-490348Y+5091376D01*
X-472399Y+5111569D01*
X-400601Y+5111569D01*
X-382652Y+5091376D01*
X-382652Y+5010604D01*
X-400601Y+4990412D01*
X-382652Y+4990412D02*
X-490348Y+5111569D01*
D20*
X-632080Y+3113920D02*
X-240920Y+3113920D01*
X-240920Y+3886080D01*
X-632080Y+3886080D01*
X-632080Y+3113920D01*
D42*
X-500000Y+3754000D02*
X-500000Y+3754000D01*
D43*
X-454449Y+3171326D02*
X-490348Y+3211711D01*
X-490348Y+3252097D01*
X-454449Y+3292483D01*
X-418551Y+3292483D01*
X-382652Y+3252097D01*
X-382652Y+3211711D01*
X-418551Y+3171326D01*
X-454449Y+3171326D01*
X-418551Y+3252097D02*
X-382652Y+3292483D01*
X-454449Y+3373254D02*
X-490348Y+3413640D01*
X-382652Y+3413640D01*
X-472399Y+3514604D02*
X-490348Y+3534797D01*
X-490348Y+3595376D01*
X-472399Y+3615569D01*
X-454449Y+3615569D01*
X-436500Y+3595376D01*
X-436500Y+3534797D01*
X-418551Y+3514604D01*
X-382652Y+3514604D01*
X-382652Y+3615569D01*
D20*
X-1017080Y+986920D02*
X+9080Y+986920D01*
X+9080Y+2013080D01*
X-1017080Y+2013080D01*
X-1017080Y+986920D01*
D31*
X-250000Y+1500000D02*
X-250000Y+1500000D01*
D39*
X-636046Y+1248236D02*
X-608072Y+1248236D01*
X-580098Y+1279706D01*
X-580098Y+1405588D01*
X-608072Y+1437059D01*
X-747941Y+1437059D01*
X-747941Y+1688823D02*
X-747941Y+1531470D01*
X-691993Y+1531470D01*
X-691993Y+1657352D01*
X-664020Y+1688823D01*
X-608072Y+1688823D01*
X-580098Y+1657352D01*
X-580098Y+1562941D01*
X-608072Y+1531470D01*
D20*
X+732920Y+986920D02*
X+1759080Y+986920D01*
X+1759080Y+2013080D01*
X+732920Y+2013080D01*
X+732920Y+986920D01*
D31*
X+1500000Y+1500000D02*
X+1500000Y+1500000D01*
D39*
X+1113954Y+1248236D02*
X+1141928Y+1248236D01*
X+1169902Y+1279706D01*
X+1169902Y+1405588D01*
X+1141928Y+1437059D01*
X+1002059Y+1437059D01*
X+1030033Y+1531470D02*
X+1002059Y+1562941D01*
X+1002059Y+1657352D01*
X+1030033Y+1688823D01*
X+1058007Y+1688823D01*
X+1085980Y+1657352D01*
X+1085980Y+1562941D01*
X+1113954Y+1531470D01*
X+1169902Y+1531470D01*
X+1169902Y+1688823D01*
D20*
X-2767080Y+986920D02*
X-1740920Y+986920D01*
X-1740920Y+2013080D01*
X-2767080Y+2013080D01*
X-2767080Y+986920D01*
D31*
X-2000000Y+1500000D02*
X-2000000Y+1500000D01*
D39*
X-2386046Y+1248236D02*
X-2358072Y+1248236D01*
X-2330098Y+1279706D01*
X-2330098Y+1405588D01*
X-2358072Y+1437059D01*
X-2497941Y+1437059D01*
X-2469967Y+1531470D02*
X-2497941Y+1562941D01*
X-2497941Y+1657352D01*
X-2469967Y+1688823D01*
X-2441993Y+1688823D01*
X-2414020Y+1657352D01*
X-2386046Y+1688823D01*
X-2358072Y+1688823D01*
X-2330098Y+1657352D01*
X-2330098Y+1562941D01*
X-2358072Y+1531470D01*
X-2414020Y+1594411D02*
X-2414020Y+1657352D01*
D44*
X-1540000Y+2610000D02*
X-1540000Y+3290000D01*
X-1960000Y+3290000D01*
X-1960000Y+2610000D01*
X-1540000Y+2610000D01*
X-1800000Y+2950000D02*
X-1700000Y+2950000D01*
X-1750000Y+3000000D02*
X-1750000Y+2900000D01*
D45*
X-1750000Y+2750000D02*
X-1750000Y+2750000D01*
D46*
X-1789586Y+2938558D02*
X-1710413Y+2938558D01*
X-1710413Y+3027628D01*
X-1763195Y+3087008D02*
X-1789586Y+3116698D01*
X-1710413Y+3116698D01*
D44*
X-2290000Y+2610000D02*
X-2290000Y+3290000D01*
X-2710000Y+3290000D01*
X-2710000Y+2610000D01*
X-2290000Y+2610000D01*
X-2550000Y+2950000D02*
X-2450000Y+2950000D01*
X-2500000Y+3000000D02*
X-2500000Y+2900000D01*
D45*
X-2500000Y+2750000D02*
X-2500000Y+2750000D01*
D46*
X-2539586Y+2938558D02*
X-2460413Y+2938558D01*
X-2460413Y+3027628D01*
X-2526391Y+3072163D02*
X-2539586Y+3087008D01*
X-2539586Y+3131543D01*
X-2526391Y+3146388D01*
X-2513195Y+3146388D01*
X-2500000Y+3131543D01*
X-2500000Y+3087008D01*
X-2486804Y+3072163D01*
X-2460413Y+3072163D01*
X-2460413Y+3146388D01*
D20*
X+5747420Y+840920D02*
X+7717580Y+840920D01*
X+7717580Y+5061080D01*
X+5747420Y+5061080D01*
X+5747420Y+840920D01*
D47*
X+6914567Y+1312402D02*
X+7005600Y+1414814D01*
X+7005600Y+1824463D01*
X+6914567Y+1926876D01*
X+6823533Y+1926876D01*
X+6732500Y+1824463D01*
X+6732500Y+1414814D01*
X+6641467Y+1312402D01*
X+6550433Y+1312402D01*
X+6459400Y+1414814D01*
X+6459400Y+1824463D01*
X+6550433Y+1926876D01*
X+6459400Y+2234113D02*
X+6459400Y+2643762D01*
X+6459400Y+2438938D02*
X+7005600Y+2438938D01*
X+7005600Y+2234113D02*
X+7005600Y+2643762D01*
X+7005600Y+2951000D02*
X+6459400Y+2951000D01*
X+6732500Y+3258237D01*
X+6459400Y+3565474D01*
X+7005600Y+3565474D01*
X+6550433Y+3872711D02*
X+6459400Y+3975123D01*
X+6459400Y+4282360D01*
X+6550433Y+4384773D01*
X+6641467Y+4384773D01*
X+6732500Y+4282360D01*
X+6732500Y+3975123D01*
X+6823533Y+3872711D01*
X+7005600Y+3872711D01*
X+7005600Y+4384773D01*
D48*
X-1378470Y+4500000D02*
X-1380609Y+4556244D01*
X-1397949Y+4668733D01*
X-1433946Y+4781222D01*
X-1491803Y+4893711D01*
X-1578494Y+5006200D01*
X-1690421Y+5103908D01*
X-1802910Y+5169680D01*
X-1915399Y+5211991D01*
X-2027888Y+5234904D01*
X-2119000Y+5240530D01*
X-2859530Y+4500000D02*
X-2857391Y+4556244D01*
X-2840051Y+4668733D01*
X-2804054Y+4781222D01*
X-2746197Y+4893711D01*
X-2659506Y+5006200D01*
X-2547579Y+5103908D01*
X-2435090Y+5169680D01*
X-2322601Y+5211991D01*
X-2210112Y+5234904D01*
X-2119000Y+5240530D01*
X-2859530Y+4500000D02*
X-2857391Y+4443756D01*
X-2840051Y+4331267D01*
X-2804054Y+4218778D01*
X-2746197Y+4106289D01*
X-2659506Y+3993800D01*
X-2547579Y+3896092D01*
X-2435090Y+3830320D01*
X-2322601Y+3788009D01*
X-2210112Y+3765096D01*
X-2119000Y+3759470D01*
X-1378470Y+4500000D02*
X-1380609Y+4443756D01*
X-1397949Y+4331267D01*
X-1433946Y+4218778D01*
X-1491803Y+4106289D01*
X-1578494Y+3993800D01*
X-1690421Y+3896092D01*
X-1802910Y+3830320D01*
X-1915399Y+3788009D01*
X-2027888Y+3765096D01*
X-2119000Y+3759470D01*
D49*
X-1738000Y+4500000D02*
X-1738000Y+4500000D01*
D50*
X-2248612Y+4413575D02*
X-2210201Y+4370362D01*
X-2210201Y+4240725D01*
X-2287023Y+4154300D01*
X-2363846Y+4154300D01*
X-2440668Y+4240725D01*
X-2440668Y+4370362D01*
X-2402257Y+4413575D01*
X-2363846Y+4586425D02*
X-2440668Y+4672850D01*
X-2210201Y+4672850D01*
D20*
X-2767080Y+5986920D02*
X-1740920Y+5986920D01*
X-1740920Y+7013080D01*
X-2767080Y+7013080D01*
X-2767080Y+5986920D01*
D31*
X-2508000Y+6500000D02*
X-2508000Y+6500000D01*
D39*
X-2066006Y+6248236D02*
X-2038032Y+6248236D01*
X-2010058Y+6279706D01*
X-2010058Y+6405588D01*
X-2038032Y+6437059D01*
X-2177901Y+6437059D01*
X-2121953Y+6562941D02*
X-2177901Y+6625882D01*
X-2010058Y+6625882D01*
D71*
X-3250000Y+250000D02*
X+8250000Y+250000D01*
X+8250000Y+7500000D01*
X-3250000Y+7500000D01*
X-3250000Y+250000D01*
M02*
