G04 PROTEUS GERBER X2 FILE*
%TF.GenerationSoftware,Labcenter,Proteus,8.15-SP1-Build34318*%
%TF.CreationDate,2023-11-28T19:51:24+00:00*%
%TF.FileFunction,Copper,L1,Top*%
%TF.FilePolarity,Positive*%
%TF.Part,Single*%
%TF.SameCoordinates,{4b54416f-b8ac-4c38-86d9-f2280a18938b}*%
%FSLAX45Y45*%
%MOMM*%
G01*
%TA.AperFunction,Conductor*%
%ADD10C,1.270000*%
%ADD11C,0.635000*%
%TA.AperFunction,ComponentPad*%
%ADD12C,3.048000*%
%TA.AperFunction,ComponentPad*%
%ADD13C,1.778000*%
%TA.AperFunction,ComponentPad*%
%ADD14C,1.270000*%
%ADD15C,1.524000*%
%TA.AperFunction,ComponentPad*%
%ADD16C,2.286000*%
%TA.AperFunction,ComponentPad*%
%ADD17R,2.032000X2.032000*%
%TA.AperFunction,SMDPad,CuDef*%
%ADD18R,3.606800X2.260600*%
%TA.AperFunction,ComponentPad*%
%ADD19R,1.778000X1.778000*%
%TA.AperFunction,ComponentPad*%
%ADD70C,2.540000*%
%TA.AperFunction,Profile*%
%ADD71C,0.101600*%
%TD.AperFunction*%
D10*
X-2500000Y+2750000D02*
X-2500000Y+1508000D01*
X-2508000Y+1500000D01*
X-1750000Y+2750000D02*
X-1750000Y+1750000D01*
X-2000000Y+1500000D01*
X+1000000Y+3246000D02*
X+617334Y+3246000D01*
X+605080Y+3258254D01*
X+255662Y+3607672D01*
X+255662Y+4944867D01*
X+255662Y+5381640D01*
X+786508Y+5912486D01*
X+1814604Y+5912486D01*
X+1848202Y+5878888D01*
X+2195090Y+5532000D01*
X+2250000Y+5532000D01*
X+1000000Y+3754000D02*
X+1298380Y+4052380D01*
X+1928677Y+4052380D01*
X+2177301Y+3803756D01*
X+2177301Y+3051165D01*
X+1619576Y+2493440D01*
X+712434Y+2493440D01*
X+0Y+3205874D01*
X+0Y+5000000D01*
X-250000Y+5250000D01*
X-500000Y+5250000D01*
X+992000Y+1500000D02*
X-8000Y+2500000D01*
X-1000000Y+2500000D01*
X-1236243Y+2736243D01*
X-1236243Y+2836138D01*
X-1236243Y+3333386D01*
X-1068253Y+3501376D01*
X-501376Y+3501376D01*
X-500000Y+3500000D01*
D11*
X+3343600Y+3750000D02*
X+4121695Y+4528095D01*
X+4693492Y+4528095D01*
X+5000000Y+4834603D01*
X+5000000Y+5000000D01*
D10*
X-2500000Y+4500000D02*
X-2500000Y+3150000D01*
X-1750000Y+3150000D02*
X-1750000Y+4488000D01*
X-1738000Y+4500000D01*
X-2500000Y+4500000D02*
X-2500000Y+5206586D01*
X-2059682Y+5646904D01*
X-2000000Y+5706586D01*
X-2000000Y+6500000D01*
D11*
X+3750000Y+5500000D02*
X+4118650Y+5868650D01*
X+4280238Y+5868650D01*
X+4500000Y+6088412D01*
X+4500000Y+6500000D01*
D10*
X+2500000Y+6250000D02*
X+2500000Y+5932964D01*
X+2739313Y+5693651D01*
X+2739313Y+5471905D01*
X+2725874Y+5458466D01*
X+2504128Y+5236720D01*
X+2436932Y+5236720D01*
X+1017280Y+5236720D01*
X+1000000Y+5254000D01*
D11*
X+4593600Y+5000000D02*
X+3863017Y+5000000D01*
X+3142487Y+5720530D01*
X+3142487Y+5975874D01*
X+3122329Y+5996032D01*
X+2868361Y+6250000D01*
X+2500000Y+6250000D01*
D12*
X+7250000Y+6500000D03*
X+6749620Y+6500000D03*
X+6249240Y+6500000D03*
D13*
X+5000000Y+1750000D03*
X+5000000Y+2766000D03*
X+4500000Y+2000000D03*
X+4500000Y+3016000D03*
D14*
X+4873000Y+3623000D03*
X+5000000Y+3750000D03*
X+4873000Y+3877000D03*
X+3623000Y+2123000D03*
X+3750000Y+2250000D03*
X+3623000Y+2377000D03*
D15*
X+4593600Y+5000000D03*
X+4796800Y+5000000D03*
X+5000000Y+5000000D03*
D12*
X+4500000Y+6500000D03*
X+5008000Y+6500000D03*
D13*
X+3750000Y+5500000D03*
X+3750000Y+4484000D03*
X+2500000Y+6750000D03*
X+3516000Y+6750000D03*
D16*
X+3516000Y+6250000D03*
X+2500000Y+6250000D03*
D15*
X+3750000Y+3750000D03*
X+3546800Y+3750000D03*
X+3343600Y+3750000D03*
D13*
X+2500000Y+2734000D03*
X+2500000Y+1718000D03*
X+3000000Y+5500000D03*
X+3000000Y+4484000D03*
D16*
X+2250000Y+5532000D03*
X+2250000Y+4516000D03*
D17*
X+1000000Y+5254000D03*
X+1000000Y+5000000D03*
X+1000000Y+4746000D03*
X+1000000Y+3754000D03*
X+1000000Y+3500000D03*
X+1000000Y+3246000D03*
X-500000Y+5250000D03*
X-500000Y+4996000D03*
X-500000Y+4742000D03*
X-500000Y+3754000D03*
X-500000Y+3500000D03*
X-500000Y+3246000D03*
D12*
X-250000Y+1500000D03*
X-758000Y+1500000D03*
X+1500000Y+1500000D03*
X+992000Y+1500000D03*
X-2000000Y+1500000D03*
X-2508000Y+1500000D03*
D18*
X-1750000Y+2750000D03*
X-1750000Y+3150000D03*
X-2500000Y+2750000D03*
X-2500000Y+3150000D03*
D19*
X+7500000Y+1500000D03*
X+5962500Y+4040000D03*
X+5962500Y+4294000D03*
X+7500000Y+3786000D03*
X+7500000Y+1754000D03*
X+7500000Y+4548000D03*
X+5962500Y+2262000D03*
X+5962500Y+2008000D03*
X+5962500Y+1754000D03*
X+5962500Y+1500000D03*
X+5962500Y+1246000D03*
X+7500000Y+1246000D03*
X+7500000Y+2008000D03*
X+7500000Y+2262000D03*
X+7500000Y+2516000D03*
X+7500000Y+2770000D03*
X+7500000Y+3024000D03*
X+7500000Y+3278000D03*
X+5962500Y+4548000D03*
X+5962500Y+4802000D03*
X+5962500Y+3786000D03*
X+5962500Y+3532000D03*
X+5962500Y+3278000D03*
X+5962500Y+3024000D03*
X+5962500Y+2770000D03*
X+5962500Y+2516000D03*
X+7500000Y+4294000D03*
X+7500000Y+3532000D03*
X+7500000Y+4040000D03*
X+7500000Y+4802000D03*
D70*
X-1738000Y+4500000D03*
X-2500000Y+4500000D03*
D12*
X-2508000Y+6500000D03*
X-2000000Y+6500000D03*
D71*
X-3250000Y+250000D02*
X+8250000Y+250000D01*
X+8250000Y+7500000D01*
X-3250000Y+7500000D01*
X-3250000Y+250000D01*
M02*
