G04 PROTEUS GERBER X2 FILE*
%TF.GenerationSoftware,Labcenter,Proteus,8.15-SP1-Build34318*%
%TF.CreationDate,2023-11-28T19:51:24+00:00*%
%TF.FileFunction,Legend,Top*%
%TF.FilePolarity,Positive*%
%TF.Part,Single*%
%TF.SameCoordinates,{4b54416f-b8ac-4c38-86d9-f2280a18938b}*%
%FSLAX45Y45*%
%MOMM*%
G01*
%TA.AperFunction,Material*%
%ADD20C,0.101600*%
%ADD21C,0.200000*%
%TA.AperFunction,NonMaterial*%
%ADD22C,0.101600*%
%TA.AperFunction,Profile*%
%ADD71C,0.101600*%
%TD.AperFunction*%
D20*
X+7504000Y+6881000D02*
X+7504000Y+6119000D01*
X+5980000Y+6119000D02*
X+5980000Y+6881000D01*
X+7504000Y+6119000D02*
X+5980000Y+6119000D01*
X+7504000Y+6881000D02*
X+5980000Y+6881000D01*
X+6581980Y+6012320D02*
X+6581980Y+6088520D01*
X+6648655Y+6088520D01*
X+6661990Y+6075820D01*
X+6661990Y+6063120D01*
X+6648655Y+6050420D01*
X+6581980Y+6050420D01*
X+6648655Y+6050420D02*
X+6661990Y+6037720D01*
X+6661990Y+6012320D01*
X+6688660Y+6088520D02*
X+6688660Y+6050420D01*
X+6728665Y+6012320D01*
X+6768670Y+6050420D01*
X+6768670Y+6088520D01*
X+6822010Y+6063120D02*
X+6848680Y+6088520D01*
X+6848680Y+6012320D01*
X+5000000Y+1877000D02*
X+5000000Y+2004000D01*
X+4936500Y+2004000D02*
X+5063500Y+2004000D01*
X+5063500Y+2512000D01*
X+4936500Y+2512000D01*
X+4936500Y+2004000D01*
X+5000000Y+2512000D02*
X+5000000Y+2639000D01*
X+4906020Y+2151320D02*
X+4829820Y+2151320D01*
X+4829820Y+2217995D01*
X+4842520Y+2231330D01*
X+4855220Y+2231330D01*
X+4867920Y+2217995D01*
X+4867920Y+2151320D01*
X+4867920Y+2217995D02*
X+4880620Y+2231330D01*
X+4906020Y+2231330D01*
X+4855220Y+2284670D02*
X+4829820Y+2311340D01*
X+4906020Y+2311340D01*
X+4500000Y+2127000D02*
X+4500000Y+2254000D01*
X+4436500Y+2254000D02*
X+4563500Y+2254000D01*
X+4563500Y+2762000D01*
X+4436500Y+2762000D01*
X+4436500Y+2254000D01*
X+4500000Y+2762000D02*
X+4500000Y+2889000D01*
X+4406020Y+2401320D02*
X+4329820Y+2401320D01*
X+4329820Y+2467995D01*
X+4342520Y+2481330D01*
X+4355220Y+2481330D01*
X+4367920Y+2467995D01*
X+4367920Y+2401320D01*
X+4367920Y+2467995D02*
X+4380620Y+2481330D01*
X+4406020Y+2481330D01*
X+4342520Y+2521335D02*
X+4329820Y+2534670D01*
X+4329820Y+2574675D01*
X+4342520Y+2588010D01*
X+4355220Y+2588010D01*
X+4367920Y+2574675D01*
X+4367920Y+2534670D01*
X+4380620Y+2521335D01*
X+4406020Y+2521335D01*
X+4406020Y+2588010D01*
X+5127000Y+3750000D02*
X+5126173Y+3770483D01*
X+5119455Y+3811450D01*
X+5105437Y+3852417D01*
X+5082659Y+3893384D01*
X+5047859Y+3934229D01*
X+5006892Y+3965845D01*
X+4965925Y+3986392D01*
X+4924958Y+3998629D01*
X+4883991Y+4003762D01*
X+4873000Y+4004000D01*
X+4619000Y+3750000D02*
X+4619827Y+3770483D01*
X+4626545Y+3811450D01*
X+4640563Y+3852417D01*
X+4663341Y+3893384D01*
X+4698141Y+3934229D01*
X+4739108Y+3965845D01*
X+4780075Y+3986392D01*
X+4821042Y+3998629D01*
X+4862009Y+4003762D01*
X+4873000Y+4004000D01*
X+4619000Y+3750000D02*
X+4619827Y+3729517D01*
X+4626545Y+3688550D01*
X+4640563Y+3647583D01*
X+4663341Y+3606616D01*
X+4698141Y+3565771D01*
X+4739108Y+3534155D01*
X+4780075Y+3513608D01*
X+4821042Y+3501371D01*
X+4862009Y+3496238D01*
X+4873000Y+3496000D01*
X+5127000Y+3750000D02*
X+5126173Y+3729517D01*
X+5119455Y+3688550D01*
X+5105437Y+3647583D01*
X+5082659Y+3606616D01*
X+5047859Y+3565771D01*
X+5006892Y+3534155D01*
X+4965925Y+3513608D01*
X+4924958Y+3501371D01*
X+4883991Y+3496238D01*
X+4873000Y+3496000D01*
X+5102500Y+3657100D02*
X+5161400Y+3634300D01*
X+5131400Y+3561000D01*
X+5128300Y+3559900D02*
X+5064200Y+3587800D01*
X+5217280Y+3643320D02*
X+5191880Y+3669990D01*
X+5191880Y+3696660D01*
X+5217280Y+3723330D01*
X+5242680Y+3723330D01*
X+5268080Y+3696660D01*
X+5268080Y+3669990D01*
X+5242680Y+3643320D01*
X+5217280Y+3643320D01*
X+5242680Y+3696660D02*
X+5268080Y+3723330D01*
X+5204580Y+3763335D02*
X+5191880Y+3776670D01*
X+5191880Y+3816675D01*
X+5204580Y+3830010D01*
X+5217280Y+3830010D01*
X+5229980Y+3816675D01*
X+5242680Y+3830010D01*
X+5255380Y+3830010D01*
X+5268080Y+3816675D01*
X+5268080Y+3776670D01*
X+5255380Y+3763335D01*
X+5229980Y+3790005D02*
X+5229980Y+3816675D01*
X+3877000Y+2250000D02*
X+3876173Y+2270483D01*
X+3869455Y+2311450D01*
X+3855437Y+2352417D01*
X+3832659Y+2393384D01*
X+3797859Y+2434229D01*
X+3756892Y+2465845D01*
X+3715925Y+2486392D01*
X+3674958Y+2498629D01*
X+3633991Y+2503762D01*
X+3623000Y+2504000D01*
X+3369000Y+2250000D02*
X+3369827Y+2270483D01*
X+3376545Y+2311450D01*
X+3390563Y+2352417D01*
X+3413341Y+2393384D01*
X+3448141Y+2434229D01*
X+3489108Y+2465845D01*
X+3530075Y+2486392D01*
X+3571042Y+2498629D01*
X+3612009Y+2503762D01*
X+3623000Y+2504000D01*
X+3369000Y+2250000D02*
X+3369827Y+2229517D01*
X+3376545Y+2188550D01*
X+3390563Y+2147583D01*
X+3413341Y+2106616D01*
X+3448141Y+2065771D01*
X+3489108Y+2034155D01*
X+3530075Y+2013608D01*
X+3571042Y+2001371D01*
X+3612009Y+1996238D01*
X+3623000Y+1996000D01*
X+3877000Y+2250000D02*
X+3876173Y+2229517D01*
X+3869455Y+2188550D01*
X+3855437Y+2147583D01*
X+3832659Y+2106616D01*
X+3797859Y+2065771D01*
X+3756892Y+2034155D01*
X+3715925Y+2013608D01*
X+3674958Y+2001371D01*
X+3633991Y+1996238D01*
X+3623000Y+1996000D01*
X+3852500Y+2157100D02*
X+3911400Y+2134300D01*
X+3881400Y+2061000D01*
X+3878300Y+2059900D02*
X+3814200Y+2087800D01*
X+3967280Y+2143320D02*
X+3941880Y+2169990D01*
X+3941880Y+2196660D01*
X+3967280Y+2223330D01*
X+3992680Y+2223330D01*
X+4018080Y+2196660D01*
X+4018080Y+2169990D01*
X+3992680Y+2143320D01*
X+3967280Y+2143320D01*
X+3992680Y+2196660D02*
X+4018080Y+2223330D01*
X+3967280Y+2276670D02*
X+3941880Y+2303340D01*
X+4018080Y+2303340D01*
X+4542800Y+4834900D02*
X+5050800Y+4834900D01*
X+4466600Y+5000000D02*
X+4471362Y+4961702D01*
X+4485650Y+4922212D01*
X+4509462Y+4880342D01*
X+4542800Y+4834900D01*
X+4466600Y+5000000D02*
X+4469231Y+5064918D01*
X+4485712Y+5124953D01*
X+4514639Y+5178942D01*
X+4554607Y+5225722D01*
X+4604212Y+5264131D01*
X+4662049Y+5293005D01*
X+4726713Y+5311183D01*
X+4796800Y+5317500D01*
X+5127000Y+5000000D02*
X+5122238Y+4961702D01*
X+5107950Y+4922212D01*
X+5084138Y+4880342D01*
X+5050800Y+4834900D01*
X+5127000Y+5000000D02*
X+5124369Y+5064918D01*
X+5107888Y+5124953D01*
X+5078961Y+5178942D01*
X+5038993Y+5225722D01*
X+4989388Y+5264131D01*
X+4931551Y+5293005D01*
X+4866887Y+5311183D01*
X+4796800Y+5317500D01*
X+4690120Y+5398780D02*
X+4716790Y+5424180D01*
X+4743460Y+5424180D01*
X+4770130Y+5398780D01*
X+4770130Y+5373380D01*
X+4743460Y+5347980D01*
X+4716790Y+5347980D01*
X+4690120Y+5373380D01*
X+4690120Y+5398780D01*
X+4743460Y+5373380D02*
X+4770130Y+5347980D01*
X+4810135Y+5411480D02*
X+4823470Y+5424180D01*
X+4863475Y+5424180D01*
X+4876810Y+5411480D01*
X+4876810Y+5398780D01*
X+4863475Y+5386080D01*
X+4823470Y+5386080D01*
X+4810135Y+5373380D01*
X+4810135Y+5347980D01*
X+4876810Y+5347980D01*
X+4246000Y+7008000D02*
X+4246000Y+5992000D01*
X+5262000Y+7008000D02*
X+5262000Y+5992000D01*
X+4246000Y+5992000D02*
X+5262000Y+5992000D01*
X+4246000Y+7008000D02*
X+5262000Y+7008000D01*
X+4647320Y+7063880D02*
X+4647320Y+7051180D01*
X+4660655Y+7038480D01*
X+4713995Y+7038480D01*
X+4727330Y+7051180D01*
X+4727330Y+7114680D01*
X+4834010Y+7063880D02*
X+4754000Y+7063880D01*
X+4807340Y+7114680D01*
X+4807340Y+7038480D01*
X+3750000Y+5373000D02*
X+3750000Y+5246000D01*
X+3686500Y+4738000D02*
X+3813500Y+4738000D01*
X+3813500Y+5246000D01*
X+3686500Y+5246000D01*
X+3686500Y+4738000D01*
X+3750000Y+4738000D02*
X+3750000Y+4611000D01*
X+3920180Y+4885320D02*
X+3843980Y+4885320D01*
X+3843980Y+4951995D01*
X+3856680Y+4965330D01*
X+3869380Y+4965330D01*
X+3882080Y+4951995D01*
X+3882080Y+4885320D01*
X+3882080Y+4951995D02*
X+3894780Y+4965330D01*
X+3920180Y+4965330D01*
X+3856680Y+5005335D02*
X+3843980Y+5018670D01*
X+3843980Y+5058675D01*
X+3856680Y+5072010D01*
X+3869380Y+5072010D01*
X+3882080Y+5058675D01*
X+3894780Y+5072010D01*
X+3907480Y+5072010D01*
X+3920180Y+5058675D01*
X+3920180Y+5018670D01*
X+3907480Y+5005335D01*
X+3882080Y+5032005D02*
X+3882080Y+5058675D01*
X+2627000Y+6750000D02*
X+2754000Y+6750000D01*
X+2754000Y+6686500D02*
X+3262000Y+6686500D01*
X+3262000Y+6813500D01*
X+2754000Y+6813500D01*
X+2754000Y+6686500D01*
X+3262000Y+6750000D02*
X+3389000Y+6750000D01*
X+2901320Y+6843980D02*
X+2901320Y+6920180D01*
X+2967995Y+6920180D01*
X+2981330Y+6907480D01*
X+2981330Y+6894780D01*
X+2967995Y+6882080D01*
X+2901320Y+6882080D01*
X+2967995Y+6882080D02*
X+2981330Y+6869380D01*
X+2981330Y+6843980D01*
X+3088010Y+6869380D02*
X+3008000Y+6869380D01*
X+3061340Y+6920180D01*
X+3061340Y+6843980D01*
X+2748920Y+6117920D02*
X+3267080Y+6117920D01*
X+3267080Y+6384620D01*
X+2748920Y+6384620D01*
X+2748920Y+6117920D01*
X+2830200Y+6382080D02*
X+2830200Y+6120460D01*
X+2677800Y+6250000D02*
X+2748920Y+6250000D01*
X+3267080Y+6250000D02*
X+3338200Y+6250000D01*
X+2901320Y+6415100D02*
X+2901320Y+6491300D01*
X+2954660Y+6491300D01*
X+2981330Y+6465900D01*
X+2981330Y+6440500D01*
X+2954660Y+6415100D01*
X+2901320Y+6415100D01*
X+3021335Y+6478600D02*
X+3034670Y+6491300D01*
X+3074675Y+6491300D01*
X+3088010Y+6478600D01*
X+3088010Y+6465900D01*
X+3074675Y+6453200D01*
X+3034670Y+6453200D01*
X+3021335Y+6440500D01*
X+3021335Y+6415100D01*
X+3088010Y+6415100D01*
X+3800800Y+3915100D02*
X+3292800Y+3915100D01*
X+3877000Y+3750000D02*
X+3872238Y+3788298D01*
X+3857950Y+3827788D01*
X+3834138Y+3869658D01*
X+3800800Y+3915100D01*
X+3877000Y+3750000D02*
X+3874369Y+3685082D01*
X+3857888Y+3625047D01*
X+3828961Y+3571058D01*
X+3788993Y+3524278D01*
X+3739388Y+3485869D01*
X+3681551Y+3456995D01*
X+3616887Y+3438817D01*
X+3546800Y+3432500D01*
X+3216600Y+3750000D02*
X+3221362Y+3788298D01*
X+3235650Y+3827788D01*
X+3259462Y+3869658D01*
X+3292800Y+3915100D01*
X+3216600Y+3750000D02*
X+3219231Y+3685082D01*
X+3235712Y+3625047D01*
X+3264639Y+3571058D01*
X+3304607Y+3524278D01*
X+3354212Y+3485869D01*
X+3412049Y+3456995D01*
X+3476713Y+3438817D01*
X+3546800Y+3432500D01*
X+3440120Y+3376620D02*
X+3466790Y+3402020D01*
X+3493460Y+3402020D01*
X+3520130Y+3376620D01*
X+3520130Y+3351220D01*
X+3493460Y+3325820D01*
X+3466790Y+3325820D01*
X+3440120Y+3351220D01*
X+3440120Y+3376620D01*
X+3493460Y+3351220D02*
X+3520130Y+3325820D01*
X+3626810Y+3351220D02*
X+3546800Y+3351220D01*
X+3600140Y+3402020D01*
X+3600140Y+3325820D01*
X+2500000Y+2607000D02*
X+2500000Y+2480000D01*
X+2436500Y+1972000D02*
X+2563500Y+1972000D01*
X+2563500Y+2480000D01*
X+2436500Y+2480000D01*
X+2436500Y+1972000D01*
X+2500000Y+1972000D02*
X+2500000Y+1845000D01*
X+2670180Y+2119320D02*
X+2593980Y+2119320D01*
X+2593980Y+2185995D01*
X+2606680Y+2199330D01*
X+2619380Y+2199330D01*
X+2632080Y+2185995D01*
X+2632080Y+2119320D01*
X+2632080Y+2185995D02*
X+2644780Y+2199330D01*
X+2670180Y+2199330D01*
X+2593980Y+2306010D02*
X+2593980Y+2239335D01*
X+2619380Y+2239335D01*
X+2619380Y+2292675D01*
X+2632080Y+2306010D01*
X+2657480Y+2306010D01*
X+2670180Y+2292675D01*
X+2670180Y+2252670D01*
X+2657480Y+2239335D01*
X+3000000Y+5373000D02*
X+3000000Y+5246000D01*
X+2936500Y+4738000D02*
X+3063500Y+4738000D01*
X+3063500Y+5246000D01*
X+2936500Y+5246000D01*
X+2936500Y+4738000D01*
X+3000000Y+4738000D02*
X+3000000Y+4611000D01*
X+3170180Y+4885320D02*
X+3093980Y+4885320D01*
X+3093980Y+4951995D01*
X+3106680Y+4965330D01*
X+3119380Y+4965330D01*
X+3132080Y+4951995D01*
X+3132080Y+4885320D01*
X+3132080Y+4951995D02*
X+3144780Y+4965330D01*
X+3170180Y+4965330D01*
X+3106680Y+5072010D02*
X+3093980Y+5058675D01*
X+3093980Y+5018670D01*
X+3106680Y+5005335D01*
X+3157480Y+5005335D01*
X+3170180Y+5018670D01*
X+3170180Y+5058675D01*
X+3157480Y+5072010D01*
X+3144780Y+5072010D01*
X+3132080Y+5058675D01*
X+3132080Y+5005335D01*
X+2115380Y+4764920D02*
X+2382080Y+4764920D01*
X+2382080Y+5283080D01*
X+2115380Y+5283080D01*
X+2115380Y+4764920D01*
X+2117920Y+4846200D02*
X+2379540Y+4846200D01*
X+2250000Y+4693800D02*
X+2250000Y+4764920D01*
X+2250000Y+5283080D02*
X+2250000Y+5354200D01*
X+2084900Y+4917320D02*
X+2008700Y+4917320D01*
X+2008700Y+4970660D01*
X+2034100Y+4997330D01*
X+2059500Y+4997330D01*
X+2084900Y+4970660D01*
X+2084900Y+4917320D01*
X+2034100Y+5050670D02*
X+2008700Y+5077340D01*
X+2084900Y+5077340D01*
X+873000Y+4619000D02*
X+1127000Y+4619000D01*
X+1127000Y+5381000D01*
X+873000Y+5381000D01*
X+873000Y+4619000D01*
X+1127000Y+5381000D02*
X+1254000Y+5381000D01*
X+1254000Y+4619000D01*
X+1127000Y+4619000D01*
X+1127000Y+5381000D02*
X+1254000Y+5254000D01*
X+1127000Y+5254000D02*
X+1254000Y+5127000D01*
X+1127000Y+5127000D02*
X+1254000Y+5000000D01*
X+1127000Y+5000000D02*
X+1254000Y+4873000D01*
X+1127000Y+4873000D02*
X+1254000Y+4746000D01*
X+1127000Y+4746000D02*
X+1254000Y+4619000D01*
X+1309880Y+4893320D02*
X+1284480Y+4919990D01*
X+1284480Y+4946660D01*
X+1309880Y+4973330D01*
X+1335280Y+4973330D01*
X+1360680Y+4946660D01*
X+1360680Y+4919990D01*
X+1335280Y+4893320D01*
X+1309880Y+4893320D01*
X+1335280Y+4946660D02*
X+1360680Y+4973330D01*
X+1309880Y+5080010D02*
X+1322580Y+5066675D01*
X+1322580Y+5026670D01*
X+1309880Y+5013335D01*
X+1297180Y+5013335D01*
X+1284480Y+5026670D01*
X+1284480Y+5066675D01*
X+1297180Y+5080010D01*
X+1347980Y+5080010D01*
X+1360680Y+5066675D01*
X+1360680Y+5026670D01*
X+873000Y+3119000D02*
X+1127000Y+3119000D01*
X+1127000Y+3881000D01*
X+873000Y+3881000D01*
X+873000Y+3119000D01*
X+1127000Y+3881000D02*
X+1254000Y+3881000D01*
X+1254000Y+3119000D01*
X+1127000Y+3119000D01*
X+1127000Y+3881000D02*
X+1254000Y+3754000D01*
X+1127000Y+3754000D02*
X+1254000Y+3627000D01*
X+1127000Y+3627000D02*
X+1254000Y+3500000D01*
X+1127000Y+3500000D02*
X+1254000Y+3373000D01*
X+1127000Y+3373000D02*
X+1254000Y+3246000D01*
X+1127000Y+3246000D02*
X+1254000Y+3119000D01*
X+1309880Y+3339980D02*
X+1284480Y+3366650D01*
X+1284480Y+3393320D01*
X+1309880Y+3419990D01*
X+1335280Y+3419990D01*
X+1360680Y+3393320D01*
X+1360680Y+3366650D01*
X+1335280Y+3339980D01*
X+1309880Y+3339980D01*
X+1335280Y+3393320D02*
X+1360680Y+3419990D01*
X+1309880Y+3473330D02*
X+1284480Y+3500000D01*
X+1360680Y+3500000D01*
X+1309880Y+3580010D02*
X+1284480Y+3606680D01*
X+1360680Y+3606680D01*
X-627000Y+4615000D02*
X-373000Y+4615000D01*
X-373000Y+5377000D01*
X-627000Y+5377000D01*
X-627000Y+4615000D01*
X-373000Y+5377000D02*
X-246000Y+5377000D01*
X-246000Y+4615000D01*
X-373000Y+4615000D01*
X-373000Y+5377000D02*
X-246000Y+5250000D01*
X-373000Y+5250000D02*
X-246000Y+5123000D01*
X-373000Y+5123000D02*
X-246000Y+4996000D01*
X-373000Y+4996000D02*
X-246000Y+4869000D01*
X-373000Y+4869000D02*
X-246000Y+4742000D01*
X-373000Y+4742000D02*
X-246000Y+4615000D01*
X-190120Y+4835980D02*
X-215520Y+4862650D01*
X-215520Y+4889320D01*
X-190120Y+4915990D01*
X-164720Y+4915990D01*
X-139320Y+4889320D01*
X-139320Y+4862650D01*
X-164720Y+4835980D01*
X-190120Y+4835980D01*
X-164720Y+4889320D02*
X-139320Y+4915990D01*
X-190120Y+4969330D02*
X-215520Y+4996000D01*
X-139320Y+4996000D01*
X-152020Y+5049340D02*
X-202820Y+5049340D01*
X-215520Y+5062675D01*
X-215520Y+5116015D01*
X-202820Y+5129350D01*
X-152020Y+5129350D01*
X-139320Y+5116015D01*
X-139320Y+5062675D01*
X-152020Y+5049340D01*
X-139320Y+5049340D02*
X-215520Y+5129350D01*
X-627000Y+3119000D02*
X-373000Y+3119000D01*
X-373000Y+3881000D01*
X-627000Y+3881000D01*
X-627000Y+3119000D01*
X-373000Y+3881000D02*
X-246000Y+3881000D01*
X-246000Y+3119000D01*
X-373000Y+3119000D01*
X-373000Y+3881000D02*
X-246000Y+3754000D01*
X-373000Y+3754000D02*
X-246000Y+3627000D01*
X-373000Y+3627000D02*
X-246000Y+3500000D01*
X-373000Y+3500000D02*
X-246000Y+3373000D01*
X-373000Y+3373000D02*
X-246000Y+3246000D01*
X-373000Y+3246000D02*
X-246000Y+3119000D01*
X-190120Y+3339980D02*
X-215520Y+3366650D01*
X-215520Y+3393320D01*
X-190120Y+3419990D01*
X-164720Y+3419990D01*
X-139320Y+3393320D01*
X-139320Y+3366650D01*
X-164720Y+3339980D01*
X-190120Y+3339980D01*
X-164720Y+3393320D02*
X-139320Y+3419990D01*
X-190120Y+3473330D02*
X-215520Y+3500000D01*
X-139320Y+3500000D01*
X-202820Y+3566675D02*
X-215520Y+3580010D01*
X-215520Y+3620015D01*
X-202820Y+3633350D01*
X-190120Y+3633350D01*
X-177420Y+3620015D01*
X-177420Y+3580010D01*
X-164720Y+3566675D01*
X-139320Y+3566675D01*
X-139320Y+3633350D01*
X+4000Y+992000D02*
X+4000Y+2008000D01*
X-1012000Y+992000D02*
X-1012000Y+2008000D01*
X+4000Y+2008000D02*
X-1012000Y+2008000D01*
X+4000Y+992000D02*
X-1012000Y+992000D01*
X-610680Y+910720D02*
X-610680Y+898020D01*
X-597345Y+885320D01*
X-544005Y+885320D01*
X-530670Y+898020D01*
X-530670Y+961520D01*
X-423990Y+961520D02*
X-490665Y+961520D01*
X-490665Y+936120D01*
X-437325Y+936120D01*
X-423990Y+923420D01*
X-423990Y+898020D01*
X-437325Y+885320D01*
X-477330Y+885320D01*
X-490665Y+898020D01*
X+1754000Y+992000D02*
X+1754000Y+2008000D01*
X+738000Y+992000D02*
X+738000Y+2008000D01*
X+1754000Y+2008000D02*
X+738000Y+2008000D01*
X+1754000Y+992000D02*
X+738000Y+992000D01*
X+1139320Y+910720D02*
X+1139320Y+898020D01*
X+1152655Y+885320D01*
X+1205995Y+885320D01*
X+1219330Y+898020D01*
X+1219330Y+961520D01*
X+1259335Y+948820D02*
X+1272670Y+961520D01*
X+1312675Y+961520D01*
X+1326010Y+948820D01*
X+1326010Y+936120D01*
X+1312675Y+923420D01*
X+1272670Y+923420D01*
X+1259335Y+910720D01*
X+1259335Y+885320D01*
X+1326010Y+885320D01*
X-1746000Y+992000D02*
X-1746000Y+2008000D01*
X-2762000Y+992000D02*
X-2762000Y+2008000D01*
X-1746000Y+2008000D02*
X-2762000Y+2008000D01*
X-1746000Y+992000D02*
X-2762000Y+992000D01*
X-2360680Y+910720D02*
X-2360680Y+898020D01*
X-2347345Y+885320D01*
X-2294005Y+885320D01*
X-2280670Y+898020D01*
X-2280670Y+961520D01*
X-2240665Y+948820D02*
X-2227330Y+961520D01*
X-2187325Y+961520D01*
X-2173990Y+948820D01*
X-2173990Y+936120D01*
X-2187325Y+923420D01*
X-2173990Y+910720D01*
X-2173990Y+898020D01*
X-2187325Y+885320D01*
X-2227330Y+885320D01*
X-2240665Y+898020D01*
X-2213995Y+923420D02*
X-2187325Y+923420D01*
D21*
X-1970000Y+2690000D02*
X-1970000Y+3210000D01*
X-1530000Y+2690000D02*
X-1530000Y+3210000D01*
D20*
X-2081600Y+2843320D02*
X-2005400Y+2843320D01*
X-2005400Y+2923330D01*
X-2056200Y+2976670D02*
X-2081600Y+3003340D01*
X-2005400Y+3003340D01*
D21*
X-2720000Y+2690000D02*
X-2720000Y+3210000D01*
X-2280000Y+2690000D02*
X-2280000Y+3210000D01*
D20*
X-2831600Y+2843320D02*
X-2755400Y+2843320D01*
X-2755400Y+2923330D01*
X-2818900Y+2963335D02*
X-2831600Y+2976670D01*
X-2831600Y+3016675D01*
X-2818900Y+3030010D01*
X-2806200Y+3030010D01*
X-2793500Y+3016675D01*
X-2793500Y+2976670D01*
X-2780800Y+2963335D01*
X-2755400Y+2963335D01*
X-2755400Y+3030010D01*
X+5752500Y+1056000D02*
X+7712500Y+1056000D01*
X+7712500Y+5056000D01*
X+5752500Y+5056000D01*
X+5752500Y+1056000D01*
X+6589300Y+3276000D02*
X+6741700Y+3276000D01*
X+6665500Y+3199800D01*
X+6741700Y+3123600D01*
X+6589300Y+3123600D01*
X+6589300Y+2895000D02*
X+6716300Y+3022000D01*
X+6741700Y+2996600D01*
X+6741700Y+2945800D01*
X+6716300Y+2920400D01*
X+6640100Y+3047400D01*
X+6614700Y+3047400D01*
X+6589300Y+3022000D01*
X+6589300Y+2971200D01*
X+6665500Y+2895000D01*
X+6741700Y+2869600D02*
X+6665500Y+2869600D01*
X+6589300Y+2793400D01*
X+6665500Y+2717200D01*
X+6741700Y+2717200D01*
X+6979300Y+4246000D02*
X+7080900Y+4246000D01*
X+7131700Y+4195200D01*
X+7131700Y+4144400D01*
X+7080900Y+4093600D01*
X+6979300Y+4093600D01*
X+7030100Y+4246000D02*
X+7030100Y+4093600D01*
X+6979300Y+4042800D02*
X+7131700Y+4042800D01*
X+7131700Y+3915800D01*
X+7106300Y+3890400D01*
X+7080900Y+3890400D01*
X+7055500Y+3915800D01*
X+7055500Y+4042800D01*
X+7055500Y+3915800D02*
X+7030100Y+3890400D01*
X+6979300Y+3890400D01*
X+6979300Y+3839600D02*
X+7131700Y+3839600D01*
X+7131700Y+3738000D01*
X+7080900Y+3687200D01*
X+7030100Y+3687200D01*
X+6979300Y+3738000D01*
X+6979300Y+3839600D01*
X+7131700Y+3636400D02*
X+7004700Y+3636400D01*
X+6979300Y+3611000D01*
X+6979300Y+3509400D01*
X+7004700Y+3484000D01*
X+7131700Y+3484000D01*
X+7131700Y+3407800D02*
X+7131700Y+3306200D01*
X+7131700Y+3357000D02*
X+6979300Y+3357000D01*
X+6979300Y+3407800D02*
X+6979300Y+3306200D01*
X+6979300Y+3230000D02*
X+7131700Y+3230000D01*
X+6979300Y+3077600D01*
X+7131700Y+3077600D01*
X+7080900Y+3026800D02*
X+7131700Y+2976000D01*
X+7131700Y+2925200D01*
X+7080900Y+2874400D01*
X+7030100Y+2874400D01*
X+6979300Y+2925200D01*
X+6979300Y+2976000D01*
X+7030100Y+3026800D01*
X+7080900Y+3026800D01*
X+6979300Y+2620400D02*
X+7131700Y+2620400D01*
X+6979300Y+2468000D01*
X+7131700Y+2468000D01*
X+6979300Y+2417200D02*
X+7080900Y+2417200D01*
X+7131700Y+2366400D01*
X+7131700Y+2315600D01*
X+7080900Y+2264800D01*
X+6979300Y+2264800D01*
X+7030100Y+2417200D02*
X+7030100Y+2264800D01*
X+6979300Y+2214000D02*
X+7131700Y+2214000D01*
X+6979300Y+2061600D01*
X+7131700Y+2061600D01*
X+7080900Y+2010800D02*
X+7131700Y+1960000D01*
X+7131700Y+1909200D01*
X+7080900Y+1858400D01*
X+7030100Y+1858400D01*
X+6979300Y+1909200D01*
X+6979300Y+1960000D01*
X+7030100Y+2010800D01*
X+7080900Y+2010800D01*
X+6362500Y+846000D02*
X+7152500Y+846000D01*
X+7152500Y+1046000D01*
X+6362500Y+1046000D01*
X+6362500Y+846000D01*
X+6482500Y+1295200D02*
X+6482500Y+1168200D01*
X+6507900Y+1142800D01*
X+6609500Y+1142800D01*
X+6634900Y+1168200D01*
X+6634900Y+1295200D01*
X+6685700Y+1168200D02*
X+6711100Y+1142800D01*
X+6812700Y+1142800D01*
X+6838100Y+1168200D01*
X+6838100Y+1193600D01*
X+6812700Y+1219000D01*
X+6711100Y+1219000D01*
X+6685700Y+1244400D01*
X+6685700Y+1269800D01*
X+6711100Y+1295200D01*
X+6812700Y+1295200D01*
X+6838100Y+1269800D01*
X+6888900Y+1142800D02*
X+6888900Y+1295200D01*
X+7015900Y+1295200D01*
X+7041300Y+1269800D01*
X+7041300Y+1244400D01*
X+7015900Y+1219000D01*
X+7041300Y+1193600D01*
X+7041300Y+1168200D01*
X+7015900Y+1142800D01*
X+6888900Y+1142800D01*
X+6888900Y+1219000D02*
X+7015900Y+1219000D01*
X+6519140Y+5099180D02*
X+6532475Y+5086480D01*
X+6585815Y+5086480D01*
X+6599150Y+5099180D01*
X+6599150Y+5111880D01*
X+6585815Y+5124580D01*
X+6532475Y+5124580D01*
X+6519140Y+5137280D01*
X+6519140Y+5149980D01*
X+6532475Y+5162680D01*
X+6585815Y+5162680D01*
X+6599150Y+5149980D01*
X+6639155Y+5162680D02*
X+6692495Y+5162680D01*
X+6665825Y+5162680D02*
X+6665825Y+5086480D01*
X+6639155Y+5086480D02*
X+6692495Y+5086480D01*
X+6732500Y+5086480D02*
X+6732500Y+5162680D01*
X+6772505Y+5124580D01*
X+6812510Y+5162680D01*
X+6812510Y+5086480D01*
X+6852515Y+5149980D02*
X+6865850Y+5162680D01*
X+6905855Y+5162680D01*
X+6919190Y+5149980D01*
X+6919190Y+5137280D01*
X+6905855Y+5124580D01*
X+6865850Y+5124580D01*
X+6852515Y+5111880D01*
X+6852515Y+5086480D01*
X+6919190Y+5086480D01*
X-1420500Y+4500000D02*
X-1422538Y+4553320D01*
X-1439063Y+4659961D01*
X-1473380Y+4766602D01*
X-1528583Y+4873243D01*
X-1611444Y+4979884D01*
X-1717697Y+5071715D01*
X-1824338Y+5133306D01*
X-1930979Y+5172719D01*
X-2037620Y+5193743D01*
X-2119000Y+5198500D01*
X-2817500Y+4500000D02*
X-2815462Y+4553320D01*
X-2798937Y+4659961D01*
X-2764620Y+4766602D01*
X-2709417Y+4873243D01*
X-2626556Y+4979884D01*
X-2520303Y+5071715D01*
X-2413662Y+5133306D01*
X-2307021Y+5172719D01*
X-2200380Y+5193743D01*
X-2119000Y+5198500D01*
X-2817500Y+4500000D02*
X-2815462Y+4446680D01*
X-2798937Y+4340039D01*
X-2764620Y+4233398D01*
X-2709417Y+4126757D01*
X-2626556Y+4020116D01*
X-2520303Y+3928285D01*
X-2413662Y+3866694D01*
X-2307021Y+3827281D01*
X-2200380Y+3806257D01*
X-2119000Y+3801500D01*
X-1420500Y+4500000D02*
X-1422538Y+4446680D01*
X-1439063Y+4340039D01*
X-1473380Y+4233398D01*
X-1528583Y+4126757D01*
X-1611444Y+4020116D01*
X-1717697Y+3928285D01*
X-1824338Y+3866694D01*
X-1930979Y+3827281D01*
X-2037620Y+3806257D01*
X-2119000Y+3801500D01*
X-2145670Y+3707520D02*
X-2159005Y+3694820D01*
X-2199010Y+3694820D01*
X-2225680Y+3720220D01*
X-2225680Y+3745620D01*
X-2199010Y+3771020D01*
X-2159005Y+3771020D01*
X-2145670Y+3758320D01*
X-2092330Y+3745620D02*
X-2065660Y+3771020D01*
X-2065660Y+3694820D01*
X-2762000Y+7008000D02*
X-2762000Y+5992000D01*
X-1746000Y+7008000D02*
X-1746000Y+5992000D01*
X-2762000Y+5992000D02*
X-1746000Y+5992000D01*
X-2762000Y+7008000D02*
X-1746000Y+7008000D01*
X-2360680Y+7063880D02*
X-2360680Y+7051180D01*
X-2347345Y+7038480D01*
X-2294005Y+7038480D01*
X-2280670Y+7051180D01*
X-2280670Y+7114680D01*
X-2227330Y+7089280D02*
X-2200660Y+7114680D01*
X-2200660Y+7038480D01*
D22*
X-1500000Y+7199200D02*
X-1500000Y+7072200D01*
X-1474600Y+7046800D01*
X-1373000Y+7046800D01*
X-1347600Y+7072200D01*
X-1347600Y+7199200D01*
X-1271400Y+7199200D02*
X-1169800Y+7199200D01*
X-1220600Y+7199200D02*
X-1220600Y+7046800D01*
X-1271400Y+7046800D02*
X-1169800Y+7046800D01*
X-1093600Y+7072200D02*
X-1068200Y+7046800D01*
X-966600Y+7046800D01*
X-941200Y+7072200D01*
X-941200Y+7097600D01*
X-966600Y+7123000D01*
X-1068200Y+7123000D01*
X-1093600Y+7148400D01*
X-1093600Y+7173800D01*
X-1068200Y+7199200D01*
X-966600Y+7199200D01*
X-941200Y+7173800D01*
X-661800Y+7123000D02*
X-534800Y+7123000D01*
X-255400Y+7199200D02*
X-153800Y+7199200D01*
X-204600Y+7199200D02*
X-204600Y+7046800D01*
X-255400Y+7046800D02*
X-153800Y+7046800D01*
X-77600Y+7046800D02*
X-77600Y+7148400D01*
X-77600Y+7123000D02*
X-52200Y+7148400D01*
X+49400Y+7148400D01*
X+74800Y+7123000D01*
X+74800Y+7046800D01*
X+125600Y+7148400D02*
X+201800Y+7046800D01*
X+278000Y+7148400D01*
X+328800Y+7097600D02*
X+481200Y+7097600D01*
X+481200Y+7123000D01*
X+455800Y+7148400D01*
X+354200Y+7148400D01*
X+328800Y+7123000D01*
X+328800Y+7072200D01*
X+354200Y+7046800D01*
X+455800Y+7046800D01*
X+532000Y+7046800D02*
X+532000Y+7148400D01*
X+532000Y+7123000D02*
X+557400Y+7148400D01*
X+659000Y+7148400D01*
X+684400Y+7123000D01*
X+862200Y+7148400D02*
X+760600Y+7148400D01*
X+735200Y+7123000D01*
X+760600Y+7097600D01*
X+862200Y+7097600D01*
X+887600Y+7072200D01*
X+862200Y+7046800D01*
X+735200Y+7046800D01*
X+938400Y+7123000D02*
X+963800Y+7148400D01*
X+1065400Y+7148400D01*
X+1090800Y+7123000D01*
X+1090800Y+7072200D01*
X+1065400Y+7046800D01*
X+963800Y+7046800D01*
X+938400Y+7072200D01*
X+938400Y+7123000D01*
X+1141600Y+7046800D02*
X+1141600Y+7148400D01*
X+1141600Y+7123000D02*
X+1167000Y+7148400D01*
X+1268600Y+7148400D01*
X+1294000Y+7123000D01*
X+1548000Y+7072200D02*
X+1573400Y+7046800D01*
X+1675000Y+7046800D01*
X+1700400Y+7072200D01*
X+1700400Y+7097600D01*
X+1675000Y+7123000D01*
X+1573400Y+7123000D01*
X+1548000Y+7148400D01*
X+1548000Y+7173800D01*
X+1573400Y+7199200D01*
X+1675000Y+7199200D01*
X+1700400Y+7173800D01*
X+1751200Y+7046800D02*
X+1751200Y+7199200D01*
X+1878200Y+7199200D01*
X+1903600Y+7173800D01*
X+1903600Y+7148400D01*
X+1878200Y+7123000D01*
X+1751200Y+7123000D01*
X+1954400Y+7199200D02*
X+1954400Y+7046800D01*
X+2030600Y+7123000D01*
X+2106800Y+7046800D01*
X+2106800Y+7199200D01*
X+2157600Y+7046800D02*
X+2157600Y+7199200D01*
X+2233800Y+7123000D01*
X+2310000Y+7199200D01*
X+2310000Y+7046800D01*
X-1500000Y+6597600D02*
X-1500000Y+6572200D01*
X-1474600Y+6546800D01*
X-1373000Y+6546800D01*
X-1347600Y+6572200D01*
X-1347600Y+6699200D01*
X-1296800Y+6648400D02*
X-1296800Y+6572200D01*
X-1271400Y+6546800D01*
X-1169800Y+6546800D01*
X-1144400Y+6572200D01*
X-1144400Y+6546800D02*
X-1144400Y+6648400D01*
X-1017400Y+6699200D02*
X-1017400Y+6546800D01*
X-814200Y+6648400D02*
X-814200Y+6546800D01*
X-814200Y+6699200D02*
X-814200Y+6699200D01*
X-661800Y+6648400D02*
X-560200Y+6648400D01*
X-534800Y+6623000D01*
X-534800Y+6546800D01*
X-661800Y+6546800D01*
X-687200Y+6572200D01*
X-661800Y+6597600D01*
X-534800Y+6597600D01*
X-484000Y+6546800D02*
X-484000Y+6648400D01*
X-484000Y+6623000D02*
X-458600Y+6648400D01*
X-357000Y+6648400D01*
X-331600Y+6623000D01*
X-331600Y+6546800D01*
X-77600Y+6546800D02*
X-77600Y+6699200D01*
X+49400Y+6699200D01*
X+74800Y+6673800D01*
X+74800Y+6648400D01*
X+49400Y+6623000D01*
X-77600Y+6623000D01*
X+49400Y+6623000D02*
X+74800Y+6597600D01*
X+74800Y+6546800D01*
X+354200Y+6623000D02*
X+481200Y+6623000D01*
X+735200Y+6546800D02*
X+735200Y+6699200D01*
X+862200Y+6699200D01*
X+887600Y+6673800D01*
X+887600Y+6648400D01*
X+862200Y+6623000D01*
X+735200Y+6623000D01*
X+938400Y+6597600D02*
X+1090800Y+6597600D01*
X+1090800Y+6623000D01*
X+1065400Y+6648400D01*
X+963800Y+6648400D01*
X+938400Y+6623000D01*
X+938400Y+6572200D01*
X+963800Y+6546800D01*
X+1065400Y+6546800D01*
X+1294000Y+6623000D02*
X+1268600Y+6648400D01*
X+1167000Y+6648400D01*
X+1141600Y+6623000D01*
X+1141600Y+6572200D01*
X+1167000Y+6546800D01*
X+1268600Y+6546800D01*
X+1294000Y+6572200D01*
X+1294000Y+6546800D02*
X+1294000Y+6699200D01*
X+1344800Y+6546800D02*
X+1344800Y+6648400D01*
X+1344800Y+6623000D02*
X+1370200Y+6648400D01*
X+1471800Y+6648400D01*
X+1497200Y+6623000D01*
X+1548000Y+6623000D02*
X+1573400Y+6648400D01*
X+1675000Y+6648400D01*
X+1700400Y+6623000D01*
X+1700400Y+6572200D01*
X+1675000Y+6546800D01*
X+1573400Y+6546800D01*
X+1548000Y+6572200D01*
X+1548000Y+6623000D01*
X+1954400Y+6572200D02*
X+1979800Y+6546800D01*
X+2081400Y+6546800D01*
X+2106800Y+6572200D01*
X+2106800Y+6597600D01*
X+2081400Y+6623000D01*
X+1979800Y+6623000D01*
X+1954400Y+6648400D01*
X+1954400Y+6673800D01*
X+1979800Y+6699200D01*
X+2081400Y+6699200D01*
X+2106800Y+6673800D01*
D71*
X-3250000Y+250000D02*
X+8250000Y+250000D01*
X+8250000Y+7500000D01*
X-3250000Y+7500000D01*
X-3250000Y+250000D01*
M02*
