G04 PROTEUS GERBER X2 FILE*
%TF.GenerationSoftware,Labcenter,Proteus,8.15-SP1-Build34318*%
%TF.CreationDate,2023-11-28T19:51:24+00:00*%
%TF.FileFunction,Soldermask,Top*%
%TF.FilePolarity,Negative*%
%TF.Part,Single*%
%TF.SameCoordinates,{4b54416f-b8ac-4c38-86d9-f2280a18938b}*%
%FSLAX45Y45*%
%MOMM*%
G01*
%TA.AperFunction,Material*%
%ADD23C,3.302000*%
%TA.AperFunction,Material*%
%ADD24C,2.032000*%
%TA.AperFunction,Material*%
%ADD25C,1.524000*%
%ADD26C,1.778000*%
%TA.AperFunction,Material*%
%ADD27C,2.540000*%
%AMPPAD020*
4,1,36,
1.143000,1.016000,
1.143000,-1.016000,
1.140470,-1.041970,
1.133200,-1.065980,
1.121650,-1.087580,
1.106290,-1.106290,
1.087570,-1.121650,
1.065980,-1.133200,
1.041970,-1.140470,
1.016000,-1.143000,
-1.016000,-1.143000,
-1.041970,-1.140470,
-1.065980,-1.133200,
-1.087570,-1.121650,
-1.106290,-1.106290,
-1.121650,-1.087580,
-1.133200,-1.065980,
-1.140470,-1.041970,
-1.143000,-1.016000,
-1.143000,1.016000,
-1.140470,1.041970,
-1.133200,1.065980,
-1.121650,1.087580,
-1.106290,1.106290,
-1.087570,1.121650,
-1.065980,1.133200,
-1.041970,1.140470,
-1.016000,1.143000,
1.016000,1.143000,
1.041970,1.140470,
1.065980,1.133200,
1.087570,1.121650,
1.106290,1.106290,
1.121650,1.087580,
1.133200,1.065980,
1.140470,1.041970,
1.143000,1.016000,
0*%
%TA.AperFunction,Material*%
%ADD28PPAD020*%
%AMPPAD021*
4,1,4,
-1.803400,-1.130300,
-1.803400,1.130300,
1.803400,1.130300,
1.803400,-1.130300,
-1.803400,-1.130300,
0*%
%TA.AperFunction,Material*%
%ADD29PPAD021*%
%AMPPAD022*
4,1,36,
-0.889000,1.016000,
0.889000,1.016000,
0.914970,1.013470,
0.938980,1.006200,
0.960580,0.994650,
0.979290,0.979290,
0.994650,0.960570,
1.006200,0.938980,
1.013470,0.914970,
1.016000,0.889000,
1.016000,-0.889000,
1.013470,-0.914970,
1.006200,-0.938980,
0.994650,-0.960570,
0.979290,-0.979290,
0.960580,-0.994650,
0.938980,-1.006200,
0.914970,-1.013470,
0.889000,-1.016000,
-0.889000,-1.016000,
-0.914970,-1.013470,
-0.938980,-1.006200,
-0.960580,-0.994650,
-0.979290,-0.979290,
-0.994650,-0.960570,
-1.006200,-0.938980,
-1.013470,-0.914970,
-1.016000,-0.889000,
-1.016000,0.889000,
-1.013470,0.914970,
-1.006200,0.938980,
-0.994650,0.960570,
-0.979290,0.979290,
-0.960580,0.994650,
-0.938980,1.006200,
-0.914970,1.013470,
-0.889000,1.016000,
0*%
%TA.AperFunction,Material*%
%ADD72PPAD022*%
%TA.AperFunction,Material*%
%ADD73C,2.794000*%
%TA.AperFunction,Profile*%
%ADD71C,0.101600*%
%TD.AperFunction*%
D23*
X+7250000Y+6500000D03*
X+6749620Y+6500000D03*
X+6249240Y+6500000D03*
D24*
X+5000000Y+1750000D03*
X+5000000Y+2766000D03*
X+4500000Y+2000000D03*
X+4500000Y+3016000D03*
D25*
X+4873000Y+3623000D03*
X+5000000Y+3750000D03*
X+4873000Y+3877000D03*
X+3623000Y+2123000D03*
X+3750000Y+2250000D03*
X+3623000Y+2377000D03*
D26*
X+4593600Y+5000000D03*
X+4796800Y+5000000D03*
X+5000000Y+5000000D03*
D23*
X+4500000Y+6500000D03*
X+5008000Y+6500000D03*
D24*
X+3750000Y+5500000D03*
X+3750000Y+4484000D03*
X+2500000Y+6750000D03*
X+3516000Y+6750000D03*
D27*
X+3516000Y+6250000D03*
X+2500000Y+6250000D03*
D26*
X+3750000Y+3750000D03*
X+3546800Y+3750000D03*
X+3343600Y+3750000D03*
D24*
X+2500000Y+2734000D03*
X+2500000Y+1718000D03*
X+3000000Y+5500000D03*
X+3000000Y+4484000D03*
D27*
X+2250000Y+5532000D03*
X+2250000Y+4516000D03*
D28*
X+1000000Y+5254000D03*
X+1000000Y+5000000D03*
X+1000000Y+4746000D03*
X+1000000Y+3754000D03*
X+1000000Y+3500000D03*
X+1000000Y+3246000D03*
X-500000Y+5250000D03*
X-500000Y+4996000D03*
X-500000Y+4742000D03*
X-500000Y+3754000D03*
X-500000Y+3500000D03*
X-500000Y+3246000D03*
D23*
X-250000Y+1500000D03*
X-758000Y+1500000D03*
X+1500000Y+1500000D03*
X+992000Y+1500000D03*
X-2000000Y+1500000D03*
X-2508000Y+1500000D03*
D29*
X-1750000Y+2750000D03*
X-1750000Y+3150000D03*
X-2500000Y+2750000D03*
X-2500000Y+3150000D03*
D72*
X+7500000Y+1500000D03*
X+5962500Y+4040000D03*
X+5962500Y+4294000D03*
X+7500000Y+3786000D03*
X+7500000Y+1754000D03*
X+7500000Y+4548000D03*
X+5962500Y+2262000D03*
X+5962500Y+2008000D03*
X+5962500Y+1754000D03*
X+5962500Y+1500000D03*
X+5962500Y+1246000D03*
X+7500000Y+1246000D03*
X+7500000Y+2008000D03*
X+7500000Y+2262000D03*
X+7500000Y+2516000D03*
X+7500000Y+2770000D03*
X+7500000Y+3024000D03*
X+7500000Y+3278000D03*
X+5962500Y+4548000D03*
X+5962500Y+4802000D03*
X+5962500Y+3786000D03*
X+5962500Y+3532000D03*
X+5962500Y+3278000D03*
X+5962500Y+3024000D03*
X+5962500Y+2770000D03*
X+5962500Y+2516000D03*
X+7500000Y+4294000D03*
X+7500000Y+3532000D03*
X+7500000Y+4040000D03*
X+7500000Y+4802000D03*
D73*
X-1738000Y+4500000D03*
X-2500000Y+4500000D03*
D23*
X-2508000Y+6500000D03*
X-2000000Y+6500000D03*
D71*
X-3250000Y+250000D02*
X+8250000Y+250000D01*
X+8250000Y+7500000D01*
X-3250000Y+7500000D01*
X-3250000Y+250000D01*
M02*
