G04 PROTEUS GERBER X2 FILE*
%TF.GenerationSoftware,Labcenter,Proteus,8.15-SP1-Build34318*%
%TF.CreationDate,2023-11-28T19:51:24+00:00*%
%TF.FileFunction,Copper,L2,Bot*%
%TF.FilePolarity,Positive*%
%TF.Part,Single*%
%TF.SameCoordinates,{4b54416f-b8ac-4c38-86d9-f2280a18938b}*%
%FSLAX45Y45*%
%MOMM*%
G01*
%TA.AperFunction,Conductor*%
%ADD11C,0.635000*%
%ADD10C,1.270000*%
%TA.AperFunction,ComponentPad*%
%ADD12C,3.048000*%
%TA.AperFunction,ComponentPad*%
%ADD13C,1.778000*%
%TA.AperFunction,ComponentPad*%
%ADD14C,1.270000*%
%ADD15C,1.524000*%
%TA.AperFunction,ComponentPad*%
%ADD16C,2.286000*%
%TA.AperFunction,ComponentPad*%
%ADD17R,2.032000X2.032000*%
%TA.AperFunction,ComponentPad*%
%ADD19R,1.778000X1.778000*%
%TA.AperFunction,ComponentPad*%
%ADD70C,2.540000*%
%TA.AperFunction,Profile*%
%ADD71C,0.101600*%
%TD.AperFunction*%
D11*
X+5000000Y+1750000D02*
X+5958500Y+1750000D01*
X+5962500Y+1754000D01*
X+4500000Y+2000000D02*
X+5954500Y+2000000D01*
X+5962500Y+2008000D01*
X+5000000Y+2766000D02*
X+5000000Y+3750000D01*
X+3750000Y+2250000D02*
X+4500000Y+3000000D01*
X+4500000Y+3016000D01*
X+3623000Y+2123000D02*
X+2905000Y+2123000D01*
X+2500000Y+1718000D01*
X+4873000Y+3877000D02*
X+4873000Y+4048386D01*
X+4809300Y+4112086D01*
X+4809300Y+4987500D01*
X+4796800Y+5000000D01*
X+4873000Y+3623000D02*
X+4000000Y+4496000D01*
X+4000000Y+4500000D01*
X+3766000Y+4500000D01*
X+3750000Y+4484000D01*
X+3750000Y+5500000D02*
X+3000000Y+5500000D01*
X+2250000Y+5532000D02*
X+2968000Y+5532000D01*
X+3000000Y+5500000D01*
X+2250000Y+4516000D02*
X+2968000Y+4516000D01*
X+3000000Y+4484000D01*
D10*
X+1000000Y+3754000D02*
X+1762000Y+4516000D01*
X+2250000Y+4516000D01*
X-500000Y+3246000D02*
X+1000000Y+3246000D01*
X+1988000Y+3246000D01*
X+2500000Y+2734000D01*
X-500000Y+3246000D02*
X-250000Y+2996000D01*
X-250000Y+1500000D01*
X+1000000Y+5254000D02*
X+743630Y+5254000D01*
X+678995Y+5189365D01*
X-500000Y+4010370D01*
X-500000Y+3754000D01*
X+1000000Y+4746000D02*
X+725874Y+4471874D01*
X+725874Y+4462275D01*
X+638519Y+4374920D01*
X+315979Y+4374920D01*
X+134551Y+4193492D01*
X+134551Y+3803756D01*
X+438307Y+3500000D01*
X+500000Y+3500000D01*
X+1000000Y+3500000D01*
X-500000Y+4996000D02*
X-43037Y+4996000D01*
X-33439Y+4986402D01*
X+383175Y+5403016D01*
X+383175Y+5806190D01*
X+383175Y+5883175D01*
X+750000Y+6250000D01*
X+1357194Y+6250000D01*
X+1848042Y+5759152D01*
X+1848042Y+5342539D01*
X+1505503Y+5000000D01*
X+1500000Y+5000000D01*
X+1000000Y+5000000D01*
X-758000Y+1500000D02*
X-758000Y+1732975D01*
X-1148888Y+2123863D01*
X-1148888Y+4744497D01*
X-1148888Y+4851112D01*
X-1000000Y+5000000D01*
X-996000Y+4996000D01*
X-500000Y+4996000D01*
X-500000Y+4742000D02*
X-840202Y+4401798D01*
X-853227Y+4401798D01*
X-853227Y+3561852D01*
X-791375Y+3500000D01*
X-500000Y+3500000D01*
X+1500000Y+1500000D02*
X+2325450Y+2325450D01*
X+2916455Y+2325450D01*
X+3144920Y+2553915D01*
X+3144920Y+2580794D01*
X+3144920Y+2856297D01*
X+3104603Y+2896614D01*
X+2493121Y+3508096D01*
X+2446084Y+3508096D01*
X+1008096Y+3508096D01*
X+1000000Y+3500000D01*
D11*
X+3750000Y+3750000D02*
X+3750000Y+4030239D01*
X+3725874Y+4054365D01*
X+3296239Y+4484000D01*
X+3000000Y+4484000D01*
X+3546800Y+3750000D02*
X+3546800Y+3245661D01*
X+3615000Y+3177461D01*
X+3615000Y+2385000D01*
X+3623000Y+2377000D01*
X+5008000Y+6500000D02*
X+5008000Y+5008000D01*
X+5000000Y+5000000D01*
D10*
X-1738000Y+4500000D02*
X-1738000Y+4988000D01*
X-2500000Y+5750000D01*
X-2500000Y+6492000D01*
X-2508000Y+6500000D01*
D11*
X+2500000Y+6750000D02*
X+2500000Y+6250000D01*
X+3516000Y+6750000D02*
X+3516000Y+6250000D01*
X+3516000Y+5734000D01*
X+3750000Y+5500000D01*
X+7500000Y+2008000D02*
X+7492000Y+2008000D01*
X+6824206Y+2675794D01*
X+6824206Y+2786508D01*
X+6824206Y+6425414D01*
X+6749620Y+6500000D01*
X+7250000Y+6500000D02*
X+7000000Y+6750000D01*
X+4750000Y+6750000D01*
X+4500000Y+6500000D01*
X+7500000Y+4548000D02*
X+7471682Y+4548000D01*
X+7187063Y+4832619D01*
X+7187063Y+5467618D01*
X+7287857Y+5568412D01*
X+7287857Y+6462143D01*
X+7250000Y+6500000D01*
D12*
X+7250000Y+6500000D03*
X+6749620Y+6500000D03*
X+6249240Y+6500000D03*
D13*
X+5000000Y+1750000D03*
X+5000000Y+2766000D03*
X+4500000Y+2000000D03*
X+4500000Y+3016000D03*
D14*
X+4873000Y+3623000D03*
X+5000000Y+3750000D03*
X+4873000Y+3877000D03*
X+3623000Y+2123000D03*
X+3750000Y+2250000D03*
X+3623000Y+2377000D03*
D15*
X+4593600Y+5000000D03*
X+4796800Y+5000000D03*
X+5000000Y+5000000D03*
D12*
X+4500000Y+6500000D03*
X+5008000Y+6500000D03*
D13*
X+3750000Y+5500000D03*
X+3750000Y+4484000D03*
X+2500000Y+6750000D03*
X+3516000Y+6750000D03*
D16*
X+3516000Y+6250000D03*
X+2500000Y+6250000D03*
D15*
X+3750000Y+3750000D03*
X+3546800Y+3750000D03*
X+3343600Y+3750000D03*
D13*
X+2500000Y+2734000D03*
X+2500000Y+1718000D03*
X+3000000Y+5500000D03*
X+3000000Y+4484000D03*
D16*
X+2250000Y+5532000D03*
X+2250000Y+4516000D03*
D17*
X+1000000Y+5254000D03*
X+1000000Y+5000000D03*
X+1000000Y+4746000D03*
X+1000000Y+3754000D03*
X+1000000Y+3500000D03*
X+1000000Y+3246000D03*
X-500000Y+5250000D03*
X-500000Y+4996000D03*
X-500000Y+4742000D03*
X-500000Y+3754000D03*
X-500000Y+3500000D03*
X-500000Y+3246000D03*
D12*
X-250000Y+1500000D03*
X-758000Y+1500000D03*
X+1500000Y+1500000D03*
X+992000Y+1500000D03*
X-2000000Y+1500000D03*
X-2508000Y+1500000D03*
D19*
X+7500000Y+1500000D03*
X+5962500Y+4040000D03*
X+5962500Y+4294000D03*
X+7500000Y+3786000D03*
X+7500000Y+1754000D03*
X+7500000Y+4548000D03*
X+5962500Y+2262000D03*
X+5962500Y+2008000D03*
X+5962500Y+1754000D03*
X+5962500Y+1500000D03*
X+5962500Y+1246000D03*
X+7500000Y+1246000D03*
X+7500000Y+2008000D03*
X+7500000Y+2262000D03*
X+7500000Y+2516000D03*
X+7500000Y+2770000D03*
X+7500000Y+3024000D03*
X+7500000Y+3278000D03*
X+5962500Y+4548000D03*
X+5962500Y+4802000D03*
X+5962500Y+3786000D03*
X+5962500Y+3532000D03*
X+5962500Y+3278000D03*
X+5962500Y+3024000D03*
X+5962500Y+2770000D03*
X+5962500Y+2516000D03*
X+7500000Y+4294000D03*
X+7500000Y+3532000D03*
X+7500000Y+4040000D03*
X+7500000Y+4802000D03*
D70*
X-1738000Y+4500000D03*
X-2500000Y+4500000D03*
D12*
X-2508000Y+6500000D03*
X-2000000Y+6500000D03*
D71*
X-3250000Y+250000D02*
X+8250000Y+250000D01*
X+8250000Y+7500000D01*
X-3250000Y+7500000D01*
X-3250000Y+250000D01*
M02*
